<svg width="74" height="77" viewBox="0 0 74 77" fill="none" xmlns="http://www.w3.org/2000/svg">
<mask id="path-1-outside-1_5_442" maskUnits="userSpaceOnUse" x="-5" y="-3" width="83" height="83" fill="black">
<rect fill="white" x="-5" y="-3" width="83" height="83"/>
<path d="M51.7999 62.37H21.2199L16.1599 77H-0.0101171L27.5999 0.109993H45.5299L73.1399 77H56.8599L51.7999 62.37ZM47.6199 50.05L36.5099 17.93L25.3999 50.05H47.6199Z"/>
</mask>
<path d="M51.7999 62.37L54.6351 61.3894L53.9367 59.37H51.7999V62.37ZM21.2199 62.37V59.37H19.0831L18.3847 61.3894L21.2199 62.37ZM16.1599 77V80H18.2967L18.9951 77.9806L16.1599 77ZM-0.0101171 77L-2.8336 75.9861L-4.27492 80H-0.0101171V77ZM27.5999 0.109993V-2.89001H25.4896L24.7764 -0.903876L27.5999 0.109993ZM45.5299 0.109993L48.3534 -0.903876L47.6402 -2.89001H45.5299V0.109993ZM73.1399 77V80H77.4047L75.9634 75.9861L73.1399 77ZM56.8599 77L54.0247 77.9806L54.7231 80H56.8599V77ZM47.6199 50.05V53.05H51.8319L50.4551 49.0693L47.6199 50.05ZM36.5099 17.93L39.3451 16.9493L36.5099 8.75255L33.6747 16.9493L36.5099 17.93ZM25.3999 50.05L22.5647 49.0693L21.1878 53.05H25.3999V50.05ZM51.7999 59.37H21.2199V65.37H51.7999V59.37ZM18.3847 61.3894L13.3247 76.0194L18.9951 77.9806L24.0551 63.3506L18.3847 61.3894ZM16.1599 74H-0.0101171V80H16.1599V74ZM2.81337 78.0139L30.4234 1.12386L24.7764 -0.903876L-2.8336 75.9861L2.81337 78.0139ZM27.5999 3.10999H45.5299V-2.89001H27.5999V3.10999ZM42.7064 1.12386L70.3164 78.0139L75.9634 75.9861L48.3534 -0.903876L42.7064 1.12386ZM73.1399 74H56.8599V80H73.1399V74ZM59.6951 76.0194L54.6351 61.3894L48.9647 63.3506L54.0247 77.9806L59.6951 76.0194ZM50.4551 49.0693L39.3451 16.9493L33.6747 18.9107L44.7847 51.0307L50.4551 49.0693ZM33.6747 16.9493L22.5647 49.0693L28.2351 51.0307L39.3451 18.9107L33.6747 16.9493ZM25.3999 53.05H47.6199V47.05H25.3999V53.05Z" fill="#003399" mask="url(#path-1-outside-1_5_442)"/>
</svg>
