<svg width="59" height="77" viewBox="0 0 59 77" fill="none" xmlns="http://www.w3.org/2000/svg">
<mask id="path-1-outside-1_5_441" maskUnits="userSpaceOnUse" x="-3" y="-3" width="67" height="83" fill="black">
<rect fill="white" x="-3" y="-3" width="67" height="83"/>
<path d="M40.4556 77L23.5156 47.08H16.2556V77H0.855626V0.219998H29.6756C35.6156 0.219998 40.6756 1.28333 44.8556 3.41C49.0356 5.46333 52.1523 8.28666 54.2056 11.88C56.3323 15.4 57.3956 19.36 57.3956 23.76C57.3956 28.82 55.929 33.4033 52.9956 37.51C50.0623 41.5433 45.699 44.33 39.9056 45.87L58.2756 77H40.4556ZM16.2556 35.53H29.1256C33.3056 35.53 36.4223 34.54 38.4756 32.56C40.529 30.5067 41.5556 27.6833 41.5556 24.09C41.5556 20.57 40.529 17.8567 38.4756 15.95C36.4223 13.97 33.3056 12.98 29.1256 12.98H16.2556V35.53Z"/>
</mask>
<path d="M40.4556 77L37.845 78.4781L38.7067 80H40.4556V77ZM23.5156 47.08L26.1262 45.6019L25.2646 44.08H23.5156V47.08ZM16.2556 47.08V44.08H13.2556V47.08H16.2556ZM16.2556 77V80H19.2556V77H16.2556ZM0.855626 77H-2.14437V80H0.855626V77ZM0.855626 0.219998V-2.78H-2.14437V0.219998H0.855626ZM44.8556 3.41L43.4953 6.08383L43.514 6.09338L43.5329 6.10266L44.8556 3.41ZM54.2056 11.88L51.6009 13.3684L51.619 13.4001L51.6379 13.4313L54.2056 11.88ZM52.9956 37.51L55.4218 39.2745L55.4294 39.2641L55.4368 39.2537L52.9956 37.51ZM39.9056 45.87L39.1349 42.9707L35.3111 43.9871L37.3219 47.3946L39.9056 45.87ZM58.2756 77V80H63.5293L60.8593 75.4754L58.2756 77ZM16.2556 35.53H13.2556V38.53H16.2556V35.53ZM38.4756 32.56L40.558 34.7195L40.5777 34.7006L40.5969 34.6813L38.4756 32.56ZM38.4756 15.95L36.3932 18.1095L36.4136 18.1291L36.4343 18.1484L38.4756 15.95ZM16.2556 12.98V9.98H13.2556V12.98H16.2556ZM43.0662 75.5219L26.1262 45.6019L20.905 48.5581L37.845 78.4781L43.0662 75.5219ZM23.5156 44.08H16.2556V50.08H23.5156V44.08ZM13.2556 47.08V77H19.2556V47.08H13.2556ZM16.2556 74H0.855626V80H16.2556V74ZM3.85563 77V0.219998H-2.14437V77H3.85563ZM0.855626 3.22H29.6756V-2.78H0.855626V3.22ZM29.6756 3.22C35.2656 3.22 39.8339 4.22105 43.4953 6.08383L46.216 0.736163C41.5173 -1.65439 35.9657 -2.78 29.6756 -2.78V3.22ZM43.5329 6.10266C47.2447 7.926 49.8814 10.3593 51.6009 13.3684L56.8104 10.3916C54.4232 6.21405 50.8265 3.00066 46.1783 0.717334L43.5329 6.10266ZM51.6379 13.4313C53.4619 16.4504 54.3956 19.8671 54.3956 23.76H60.3956C60.3956 18.8529 59.2027 14.3496 56.7734 10.3287L51.6379 13.4313ZM54.3956 23.76C54.3956 28.1965 53.1233 32.1699 50.5544 35.7663L55.4368 39.2537C58.7346 34.6368 60.3956 29.4435 60.3956 23.76H54.3956ZM50.5694 35.7455C48.1188 39.1151 44.4021 41.5705 39.1349 42.9707L40.6763 48.7693C46.9958 47.0894 52.0058 43.9716 55.4218 39.2745L50.5694 35.7455ZM37.3219 47.3946L55.6919 78.5246L60.8593 75.4754L42.4893 44.3453L37.3219 47.3946ZM58.2756 74H40.4556V80H58.2756V74ZM16.2556 38.53H29.1256V32.53H16.2556V38.53ZM29.1256 38.53C33.7238 38.53 37.7319 37.4447 40.558 34.7195L36.3932 30.4005C35.1127 31.6353 32.8874 32.53 29.1256 32.53V38.53ZM40.5969 34.6813C43.3402 31.9381 44.5556 28.2788 44.5556 24.09H38.5556C38.5556 27.0879 37.7177 29.0753 36.3543 30.4387L40.5969 34.6813ZM44.5556 24.09C44.5556 19.9639 43.3308 16.3644 40.517 13.7516L36.4343 18.1484C37.7271 19.3489 38.5556 21.1761 38.5556 24.09H44.5556ZM40.558 13.7905C37.7319 11.0653 33.7238 9.98 29.1256 9.98V15.98C32.8874 15.98 35.1127 16.8747 36.3932 18.1095L40.558 13.7905ZM29.1256 9.98H16.2556V15.98H29.1256V9.98ZM13.2556 12.98V35.53H19.2556V12.98H13.2556Z" fill="#003399" mask="url(#path-1-outside-1_5_441)"/>
</svg>
